g FleshPrison
v -3.220201 -0.02043984 6.551555
v -0.001498587 0.003327687 3.035795
v -0.05859504 3.221228 6.613521
v -3.220201 -0.02043984 6.551555
v -0.05859504 3.221228 6.613521
v -0.01037899 -0.02193032 10.03142
v 3.237267 -0.01493441 6.672794
v -0.01037899 -0.02193032 10.03142
v -0.05859504 3.221228 6.613521
v -0.05859504 3.221228 6.613521
v -0.001498587 0.003327687 3.035795
v 1.560952 -1.67004 6.646362
v -0.001498587 0.003327687 3.035795
v -0.01037899 -0.02193032 10.03142
v 0.9423125 -1.59397 5.78229
v -0.03012325 -2.362463 5.585614
v 0.7919433 -1.570281 5.955568
v -0.7735299 -1.933416 6.005725
v -3.220201 -0.02043984 6.551555
v -0.5632708 -1.913865 5.859621
v 0.09819681 -1.994974 6.596305
v 0.8720162 -1.743759 7.206262
v -1.102949 -1.563532 6.534434
v -0.2883775 -2.006506 6.719758
v -0.0829876 -1.919095 7.273936
v -0.04128161 -2.317306 7.492901
v -1.197633 -1.810295 6.592001
v -1.34888 -1.274446 7.107964
v -1.021186 -1.230056 7.722602
v -0.9441175 -1.277056 7.52038
v 0.1102907 -0.17755 9.765871
v 0.1056339 -0.1715626 9.76116
v 0.1119867 -0.1724005 9.770727
v -0.01872561 0.1985973 9.736835
v -0.1559187 -0.09350828 9.69583
v -0.2049877 0.04282616 2.373856
v 0.1004258 -0.1968515 3.16211
v 0.1659298 -0.1098904 9.652469
v 0.1979268 0.1421651 3.201549
v -0.01872561 0.1985973 9.736835
v -0.2049877 0.04282616 2.373856
v -1.210243 0.5710816 0.04213435
v -1.506716 0.1108651 0.4791723
v -0.9349083 -1.054354 0.05276271
v -1.037413 -0.8095835 0.5411179
v -0.3892917 -1.353721 0.4869161
v -0.5369453 -1.191317 0.04230097
v -1.129823 -2.061145 0.3287013
v -0.5643995 -1.837377 0.1858762
v -0.730836 -1.254158 0.8769039
v -0.5197787 -0.6907246 1.357523
v -0.2049877 0.04282616 2.373856
v 0.5961418 -1.316267 0.6780329
v 0.5333928 -1.306009 0.4421765
v 1.389044 -0.5402191 0.4791515
v 1.614489 -0.1152888 0.03259291
v 0.4747304 -1.004013 1.02453
v -0.01264262 -0.2604896 2.184509
v 0.1004258 -0.1968515 3.16211
v 1.18976 -0.1865275 0.8095786
v 0.4227819 -0.8154966 1.531588
v 0.4087779 -0.02612055 2.642389
v 0.1979268 0.1421651 3.201549
v 0.2692207 0.03390689 1.824696
v -0.004000758 0.4569611 2.144339
v 0.5177259 0.8746157 1.184847
v -0.2049877 0.04282616 2.373856
v 0.7493246 0.1693638 1.592525
v 1.455485 0.2241637 0.504857
v 1.547592 0.9013153 0.07375098
v 1.003315 0.3315417 0.9380187
v 0.841292 1.118444 0.4075166
v 1.891997 1.111368 0.3079331
v 0.4154157 1.531978 0.02751442
v -0.4384473 0.7312106 1.594515
v -0.8665301 0.5520254 0.9381245
v -1.506716 0.1108651 0.4791723
v -0.2827391 0.7943587 1.03925
v 0.2590947 1.202114 0.9180591
v 0.4878297 1.569748 0.566063
v -0.6728606 1.303749 0.6430751
v -1.210243 0.5710816 0.04213435
v -1.054825 0.9235007 0.3958932
v -0.8293172 1.958001 0.7044541
v -1.938056 0.2261327 0.5866475
v -0.5643995 -1.837377 0.1858762
v -0.5369453 -1.191317 0.04230097
v -1.129823 -2.061145 0.3287013
v 1.614489 -0.1152888 0.03259291
v 1.547592 0.9013153 0.07375098
v 0.4154157 1.531978 0.02751442
v -1.210243 0.5710816 0.04213435
v -0.9349083 -1.054354 0.05276271
v -0.2714132 0.1120345 10.43461
v -0.1861832 0.08527927 10.76967
v -0.01328905 -0.194325 10.74737
v 0.001164483 -0.0009526056 12.96418
v 0.1538867 0.0991001 10.73943
v -0.1861832 0.08527927 10.76967
v -0.2714132 0.1120345 10.43461
v -0.2567978 0.3030409 10.06166
v -0.08077182 -0.2265498 10.22193
v -0.2567978 0.3030409 10.06166
v 0.234783 -0.03626932 10.29126
v 0.07861866 0.4859244 9.775342
v -0.01872561 0.1985973 9.736835
v 0.1747881 0.2061143 9.926818
v 0.5119861 0.05227049 9.695445
v 0.1659298 -0.1098904 9.652469
v 0.09999216 -0.3609955 9.888841
v -0.4806087 -0.03940504 9.728568
v -0.1071179 -0.3482447 9.799475
v -0.4441299 0.285135 9.285483
v -0.01872561 0.1985973 9.736835
v -0.1559187 -0.09350828 9.69583
v 0.1056339 -0.1715626 9.76116
v 0.1102907 -0.17755 9.765871
vt 0.002300072 0.3412081
vt 0.3757507 0.003119446
vt 0.00229995 0.003119532
vt 0.002300072 0.3412081
vt 0.002300309 0.7105843
vt 0.3727161 0.7105843
vt 0.745251 0.3463429
vt 0.3727161 0.7105843
vt 0.745251 0.7105831
vt 0.745251 0.003119087
vt 0.3757507 0.003119446
vt 0.4983265 0.3547471
vt 0.3757507 0.003119446
vt 0.3727161 0.7105843
vt 0.4572004 0.2872427
vt 0.3737577 0.2797289
vt 0.4472386 0.295257
vt 0.2981899 0.3001204
vt 0.002300072 0.3412081
vt 0.339964 0.294903
vt 0.3993448 0.3521688
vt 0.4482173 0.3950053
vt 0.3015021 0.3445306
vt 0.3666591 0.3519131
vt 0.3661855 0.4094537
vt 0.3712806 0.4207235
vt 0.2593487 0.3406668
vt 0.2577112 0.3861917
vt 0.2803963 0.4188713
vt 0.2834071 0.4129546
vt 0.984083 0.0308039
vt 0.983421 0.0308048
vt 0.984083 0.0313448
vt 0.8529853 0.0183958
vt 0.8291402 0.0221542
vt 0.8529853 0.565056
vt 0.8225943 0.507369
vt 0.8053203 0.0260041
vt 0.7963642 0.504972
vt 0.7785673 0.0200709
vt 0.7659603 0.566585
vt 0.6238736 0.9750196
vt 0.6606359 0.9661398
vt 0.6513642 0.9070031
vt 0.6684733 0.9153555
vt 0.6625189 0.8648363
vt 0.6411324 0.8913666
vt 0.5987836 0.8561219
vt 0.6278004 0.8443515
vt 0.6834921 0.8902145
vt 0.7209459 0.9042079
vt 0.8045934 0.9441414
vt 0.7071047 0.8203185
vt 0.6964926 0.8140806
vt 0.7420542 0.7766383
vt 0.7459154 0.7426323
vt 0.7300211 0.8383299
vt 0.804408 0.9146996
vt 0.8591701 0.9778059
vt 0.7675762 0.786365
vt 0.7555408 0.8571905
vt 0.8543555 0.9279388
vt 0.8913093 0.9653022
vt 0.8239741 0.8664713
vt 0.875276 0.8696231
vt 0.847402 0.7866524
vt 0.9039112 0.8917831
vt 0.8097225 0.8238389
vt 0.7753719 0.755778
vt 0.7944411 0.7183358
vt 0.8002115 0.7820024
vt 0.8342863 0.7381266
vt 0.7985038 0.7345113
vt 0.8651801 0.7166158
vt 0.8995316 0.822982
vt 0.9418101 0.7900059
vt 0.9810535 0.7610957
vt 0.8937047 0.7881012
vt 0.8663893 0.7642552
vt 0.8623188 0.7405452
vt 0.914242 0.7573999
vt 0.9584584 0.7347299
vt 0.9408852 0.7488663
vt 0.9228599 0.7652667
vt 0.9603462 0.7624664
vt 0.05642412 0.8126425
vt 0.2597781 0.8532828
vt 0.04184187 0.7686451
vt 0.1704306 0.9852633
vt 0.246072 0.9869778
vt 0.3001718 0.9073984
vt 0.2398399 0.7809201
vt 0.04153723 0.7684694
vt 0.8771979 0.08913809
vt 0.8771979 0.1198212
vt 0.9084638 0.1214852
vt 0.8771979 0.3223402
vt 0.9394829 0.1266772
vt 0.9681538 0.1414752
vt 0.9889249 0.1155182
vt 0.9961278 0.07482859
vt 0.9104539 0.07681969
vt 0.8771979 0.05608919
vt 0.9377568 0.08690578
vt 0.9704399 0.06497179
vt 0.9708368 0.04543769
vt 0.9576048 0.06466489
vt 0.9446418 0.05708619
vt 0.9387568 0.04151479
vt 0.9262639 0.05649219
vt 0.8978819 0.04303489
vt 0.9172308 0.04761899
vt 0.8948739 0.03900949
vt 0.8771979 0.01875019
vt 0.9127108 0.02946869
vt 0.9302939 0.04741379
vt 0.9297488 0.04779099
vn -0.99989 -0.01151468 -0.009356375
vn 0.003809265 -0.0009306549 -0.9999924
vn -0.01204497 0.9998707 0.0106598
vn -0.99989 -0.01151468 -0.009356375
vn -0.01204497 0.9998707 0.0106598
vn -0.003671573 -0.003649053 0.9999866
vn 0.9998034 0.0009578727 0.01981116
vn -0.003671573 -0.003649053 0.9999866
vn -0.01204497 0.9998707 0.0106598
vn -0.01204497 0.9998707 0.0106598
vn 0.003809265 -0.0009306549 -0.9999924
vn 0.5710869 -0.8208818 0.003560903
vn 0.003809265 -0.0009306549 -0.9999924
vn -0.003671573 -0.003649053 0.9999866
vn 0.4803666 -0.844326 -0.2374057
vn 0.04017461 -0.9991927 -0.0002654789
vn 0.1307553 -0.9753683 0.1776507
vn -0.1335127 -0.9744416 0.1806595
vn -0.99989 -0.01151468 -0.009356375
vn 0.3145241 -0.7165766 0.6225693
vn 0.159892 -0.9835269 -0.08431751
vn 0.4416242 -0.8289601 0.3432102
vn 0.2836634 -0.7788351 0.55942
vn -0.2332013 -0.9641445 0.1266591
vn -0.3117001 -0.9023518 -0.2976648
vn -0.1141062 -0.9928664 -0.03458562
vn 0.101435 -0.9523567 0.2876244
vn -0.4885616 -0.7635387 0.422275
vn -0.6050237 -0.7102171 0.3599138
vn -0.4819265 -0.8760674 -0.01590003
vn -0.8194576 -0.2227854 0.5280681
vn -0.8168801 -0.2273111 0.5301288
vn -0.8232432 -0.2270494 0.5203069
vn 0.2300443 0.708234 -0.6674461
vn -0.2571538 -0.5667301 -0.7827445
vn -0.8921859 -0.00222539 0.451663
vn 0.2403464 -0.9627946 0.1235319
vn 0.4385729 -0.5128402 -0.7380032
vn 0.680128 0.7116351 0.1760723
vn 0.2300443 0.708234 -0.6674461
vn -0.8921859 -0.00222539 0.451663
vn -0.6051539 0.316007 -0.7307039
vn -0.9197 -0.3704126 -0.1301794
vn -0.5807191 -0.5659813 -0.5851756
vn -0.8296994 -0.4954112 0.2572288
vn -0.3154159 -0.7954599 0.5174519
vn -0.2571999 -0.3110566 -0.9149273
vn -0.7572054 -0.6422278 0.1190942
vn 0.3039324 -0.8960867 -0.3235021
vn -0.5143046 -0.7842248 0.3471057
vn -0.4956868 -0.6094215 0.6187893
vn -0.8921859 -0.00222539 0.451663
vn 0.413568 -0.8779154 0.2413009
vn 0.328917 -0.9244281 -0.1929931
vn 0.8506156 -0.5033075 0.1521013
vn 0.8055195 -0.1929982 -0.5602588
vn 0.3597525 -0.6846846 0.6338652
vn 0.03454716 -0.8919075 0.4508961
vn 0.2403464 -0.9627946 0.1235319
vn 0.7976968 -0.1599485 0.5814605
vn 0.3652265 -0.7045831 0.6084177
vn 0.9883972 -0.1516953 0.007711608
vn 0.680128 0.7116351 0.1760723
vn 0.7989636 0.04671576 0.5995622
vn 0.1540829 0.8241981 0.5449367
vn 0.4397022 0.6877005 0.5776938
vn -0.8921859 -0.00222539 0.451663
vn 0.6426051 0.1900324 0.7422576
vn 0.8252029 0.04881432 0.5627232
vn 0.4249821 0.2457972 -0.8711911
vn 0.7790014 0.3632491 0.5110841
vn 0.5682311 0.6699787 0.4777467
vn 0.8493436 0.5225835 0.07430986
vn 0.136075 0.7442445 -0.6538989
vn -0.4396728 0.8062538 0.395781
vn -0.6434741 0.4435637 0.6238527
vn -0.9197 -0.3704126 -0.1301794
vn -0.2034643 0.8130956 0.5454152
vn -0.03014302 0.73067 0.682065
vn 0.3680971 0.8490636 0.3789401
vn 0.3397009 0.7112145 -0.6154488
vn -0.6051539 0.316007 -0.7307039
vn -0.7347151 0.659305 -0.1597205
vn -0.09874772 0.9950243 -0.01324685
vn -0.9719623 -0.2312694 0.04247149
vn 0.3039324 -0.8960867 -0.3235021
vn -0.2571999 -0.3110566 -0.9149273
vn -0.7572054 -0.6422278 0.1190942
vn 0.8055195 -0.1929982 -0.5602588
vn 0.4249821 0.2457972 -0.8711911
vn 0.136075 0.7442445 -0.6538989
vn -0.6051539 0.316007 -0.7307039
vn -0.5807191 -0.5659813 -0.5851756
vn -0.9451638 0.2521447 0.2075774
vn -0.8447742 0.4636416 0.2671946
vn 0.002180914 -0.9918497 0.1273955
vn 0.02279095 -0.0128032 0.9996582
vn 0.8126534 0.5194728 0.264088
vn -0.8447742 0.4636416 0.2671946
vn -0.9451638 0.2521447 0.2075774
vn -0.6855176 0.6897878 0.2329344
vn -0.3606423 -0.8771749 0.3170194
vn -0.6855176 0.6897878 0.2329344
vn 0.9351265 -0.2709115 0.2283536
vn 0.238713 0.7864509 -0.5696587
vn 0.2300443 0.708234 -0.6674461
vn 0.7848178 0.6162775 -0.06529284
vn 0.8827474 0.168905 -0.4384382
vn 0.4385729 -0.5128402 -0.7380032
vn 0.3315897 -0.9379014 -0.1019276
vn -0.9113705 -0.4030327 -0.08347649
vn -0.259057 -0.8865014 -0.383412
vn -0.3421303 0.3535571 -0.8705999
vn 0.2300443 0.708234 -0.6674461
vn -0.2571538 -0.5667301 -0.7827445
vn 0.02671242 -0.803312 -0.594959
vn 0.977625 0.104655 0.1824738
g FleshPrison_0
f 3/3/3 2/2/2 1/1/1
f 6/6/6 5/5/5 4/4/4
f 9/9/9 8/8/8 7/7/7
f 7/7/7 11/11/11 10/10/10
f 13/13/13 7/7/7 12/12/12
f 7/7/7 14/14/14 12/12/12
f 15/15/15 13/13/13 12/12/12
f 16/16/16 13/13/13 15/15/15
f 17/17/17 15/15/15 12/12/12
f 16/16/16 15/15/15 17/17/17
f 18/18/18 13/13/13 16/16/16
f 19/19/19 13/13/13 18/18/18
f 20/20/20 16/16/16 17/17/17
f 18/18/18 16/16/16 20/20/20
f 17/17/17 12/12/12 21/21/21
f 17/17/17 21/21/21 20/20/20
f 14/14/14 22/22/22 12/12/12
f 21/21/21 12/12/12 22/22/22
f 23/23/23 18/18/18 20/20/20
f 20/20/20 21/21/21 24/24/24
f 20/20/20 24/24/24 23/23/23
f 25/25/25 21/21/21 22/22/22
f 21/21/21 25/25/25 24/24/24
f 14/14/14 26/26/26 22/22/22
f 22/22/22 26/26/26 25/25/25
f 27/27/27 18/18/18 23/23/23
f 27/27/27 19/19/19 18/18/18
f 28/28/28 27/27/27 23/23/23
f 23/23/23 24/24/24 28/28/28
f 28/28/28 19/19/19 27/27/27
f 14/14/14 19/19/19 29/29/29
f 26/26/26 14/14/14 29/29/29
f 29/29/29 19/19/19 28/28/28
f 24/24/24 25/25/25 30/30/30
f 25/25/25 26/26/26 30/30/30
f 28/28/28 24/24/24 30/30/30
f 26/26/26 29/29/29 30/30/30
f 30/30/30 29/29/29 28/28/28
f 33/33/33 32/32/32 31/31/31
f 36/36/36 35/35/35 34/34/34
f 37/37/37 35/35/35 36/36/36
f 37/37/37 38/38/38 35/35/35
f 37/37/37 39/39/39 38/38/38
f 39/39/39 40/40/40 38/38/38
f 41/41/41 40/40/40 39/39/39
f 44/44/44 43/43/43 42/42/42
f 45/45/45 43/43/43 44/44/44
f 46/46/46 45/45/45 44/44/44
f 47/47/47 46/46/46 44/44/44
f 47/47/47 48/48/48 46/46/46
f 48/48/48 49/49/49 46/46/46
f 43/43/43 45/45/45 50/50/50
f 46/46/46 50/50/50 45/45/45
f 51/51/51 43/43/43 50/50/50
f 52/52/52 43/43/43 51/51/51
f 53/53/53 50/50/50 46/46/46
f 51/51/51 50/50/50 53/53/53
f 49/49/49 54/54/54 46/46/46
f 53/53/53 46/46/46 54/54/54
f 55/55/55 54/54/54 49/49/49
f 55/55/55 53/53/53 54/54/54
f 49/49/49 56/56/56 55/55/55
f 53/53/53 55/55/55 57/57/57
f 57/57/57 51/51/51 53/53/53
f 52/52/52 51/51/51 58/58/58
f 59/59/59 52/52/52 58/58/58
f 56/56/56 60/60/60 55/55/55
f 55/55/55 60/60/60 57/57/57
f 51/51/51 57/57/57 61/61/61
f 58/58/58 51/51/51 61/61/61
f 60/60/60 61/61/61 57/57/57
f 62/62/62 59/59/59 58/58/58
f 59/59/59 62/62/62 63/63/63
f 58/58/58 61/61/61 64/64/64
f 64/64/64 62/62/62 58/58/58
f 65/65/65 63/63/63 62/62/62
f 64/64/64 65/65/65 62/62/62
f 66/66/66 65/65/65 64/64/64
f 67/67/67 63/63/63 65/65/65
f 61/61/61 68/68/68 64/64/64
f 68/68/68 61/61/61 60/60/60
f 68/68/68 66/66/66 64/64/64
f 69/69/69 60/60/60 56/56/56
f 69/69/69 56/56/56 70/70/70
f 60/60/60 71/71/71 68/68/68
f 68/68/68 71/71/71 66/66/66
f 60/60/60 69/69/69 71/71/71
f 71/71/71 69/69/69 72/72/72
f 71/71/71 72/72/72 66/66/66
f 70/70/70 73/73/73 69/69/69
f 69/69/69 73/73/73 72/72/72
f 73/73/73 70/70/70 72/72/72
f 74/74/74 72/72/72 70/70/70
f 67/67/67 65/65/65 75/75/75
f 75/75/75 65/65/65 66/66/66
f 75/75/75 76/76/76 67/67/67
f 76/76/76 77/77/77 67/67/67
f 75/75/75 66/66/66 78/78/78
f 76/76/76 75/75/75 78/78/78
f 66/66/66 72/72/72 79/79/79
f 79/79/79 78/78/78 66/66/66
f 79/79/79 72/72/72 80/80/80
f 80/80/80 72/72/72 74/74/74
f 79/79/79 80/80/80 78/78/78
f 81/81/81 80/80/80 74/74/74
f 81/81/81 78/78/78 80/80/80
f 74/74/74 82/82/82 81/81/81
f 77/77/77 83/83/83 82/82/82
f 82/82/82 83/83/83 81/81/81
f 81/81/81 84/84/84 78/78/78
f 78/78/78 84/84/84 76/76/76
f 83/83/83 84/84/84 81/81/81
f 83/83/83 76/76/76 84/84/84
f 77/77/77 85/85/85 83/83/83
f 77/77/77 76/76/76 85/85/85
f 83/83/83 85/85/85 76/76/76
f 88/88/88 87/87/87 86/86/86
f 86/86/86 87/87/87 89/89/89
f 89/89/89 87/87/87 90/90/90
f 90/90/90 87/87/87 91/91/91
f 91/91/91 87/87/87 92/92/92
f 92/92/92 87/87/87 93/93/93
f 96/96/96 95/95/95 94/94/94
f 96/96/96 97/97/97 95/95/95
f 97/97/97 96/96/96 98/98/98
f 99/99/99 97/97/97 98/98/98
f 100/100/100 99/99/99 98/98/98
f 101/101/101 100/100/100 98/98/98
f 94/94/94 102/102/102 96/96/96
f 94/94/94 103/103/103 102/102/102
f 96/96/96 104/104/104 98/98/98
f 104/104/104 96/96/96 102/102/102
f 98/98/98 105/105/105 101/101/101
f 101/101/101 105/105/105 106/106/106
f 107/107/107 105/105/105 98/98/98
f 105/105/105 107/107/107 106/106/106
f 104/104/104 107/107/107 98/98/98
f 107/107/107 108/108/108 106/106/106
f 107/107/107 104/104/104 108/108/108
f 108/108/108 109/109/109 106/106/106
f 108/108/108 104/104/104 110/110/110
f 102/102/102 110/110/110 104/104/104
f 108/108/108 110/110/110 109/109/109
f 103/103/103 111/111/111 102/102/102
f 110/110/110 102/102/102 112/112/112
f 111/111/111 112/112/112 102/102/102
f 111/111/111 103/103/103 113/113/113
f 113/113/113 103/103/103 114/114/114
f 115/115/115 113/113/113 114/114/114
f 113/113/113 115/115/115 111/111/111
f 112/112/112 111/111/111 115/115/115
f 109/109/109 112/112/112 115/115/115
f 110/110/110 116/116/116 109/109/109
f 112/112/112 109/109/109 116/116/116
f 117/117/117 116/116/116 110/110/110
f 117/117/117 110/110/110 112/112/112
f 116/116/116 117/117/117 112/112/112
